# xmcd
#
# Track frame offsets:
#	150
#	37100
#	61051
#	115095
#	146226
#	182684
#	196124
#	225664
#	263086
#
# Disc length: 3938 seconds
#
# Revision: 0
# Processed by: cddbd v1.5.2PL0 Copyright (c) Steve Scherf et al.
# Submitted via: audiograbber 1.83.01
#
DISCID=790f6009
DTITLE=Grateful Dead - 94-07-31 The Palace, Auburn Hills MI
DYEAR=1900
DGENRE=
TTITLE0=Touch Of Grey
TTITLE1=Greatest Story Ever Told
TTITLE2=Row Jimmy
TTITLE3=Spoonful
TTITLE4=Lazy River Road
TTITLE5=Me and My Uncle
TTITLE6=Big River
TTITLE7=Loose Lucy
TTITLE8=Midnight Hour
EXTD=
EXTT0=
EXTT1=
EXTT2=
EXTT3=
EXTT4=
EXTT5=
EXTT6=
EXTT7=
EXTT8=
PLAYORDER=
